<svg xmlns="http://www.w3.org/2000/svg" version="1.1" xmlns:xlink="http://www.w3.org/1999/xlink" xmlns:svgjs="http://svgjs.dev/svgjs" width="1440" height="560" preserveAspectRatio="none" viewBox="0 0 1440 560">
    <g mask="url(&quot;#SvgjsMask1003&quot;)" fill="none">
        <path d="M140 108C130.11 108 134.07 125.59 123.28 140C69.67 211.59 6.4 230.11 11.2 280C14.76 317.05 75.44 297.59 140 313.89C209.84 331.53 210.09 348.27 280 347.88C350.09 347.48 351.36 334.07 420 312.31C458.42 300.13 489.56 310.43 494.12 280C502.48 224.27 469.49 210.17 445.85 140C432.43 100.17 434.92 60 420 60C404.5 60 411.55 106.45 385 140C341.55 194.91 333.55 236.92 280 236.92C223.77 236.92 220.46 190.66 165.45 140C150.46 126.2 151.2 108 140 108" stroke="rgba(132, 225, 185, 1)" stroke-width="2"></path>
        <path d="M0 11.35C18.94 11.35 71.04 79.25 71.04 140C71.04 185.33 20.16 223.51 0 223.51C-15.36 223.51 0 181.75 0 140C0 75.68 -16.58 11.35 0 11.35" stroke="rgba(132, 225, 185, 1)" stroke-width="2"></path>
        <path d="M140 8C119.78 -9.58 84 2.01 84 0C84 -1.99 112 0 140 0C210 0 210 0 280 0C313.87 0 342.62 -22.34 347.74 0C358.66 47.66 338.09 74.87 312.08 140C304.22 159.68 296.36 169.62 280 169.62C262.82 169.62 259.96 157.27 245 140C189.96 76.46 200.28 60.42 140 8" stroke="rgba(132, 225, 185, 1)" stroke-width="2"></path>
        <path d="M499.69 140C476.07 75.02 458.38 44.24 477.44 0C488.54 -25.76 518.72 0 560 0C630 0 630 0 700 0C770 0 770 0 840 0C910 0 910 0 980 0C1050 0 1050 0 1120 0C1148.18 0 1176.36 -17.32 1176.36 0C1176.36 38.32 1155.45 62.21 1120 111.28C1104.87 132.21 1096.42 124.01 1075.2 140C1026.42 176.75 1023.38 174.3 980 216.77C951.88 244.3 935.32 243.8 932.2 280C926.57 345.42 941.96 353.15 962.5 420C965.86 430.93 970.91 428.18 980 435.56C1049.66 492.1 1050.78 490.86 1120 547.83C1126.38 553.08 1131.2 556.37 1131.2 560C1131.2 562.46 1125.6 560 1120 560C1050 560 1050 560 980 560C910 560 910 560 840 560C811.79 560 793.88 580.02 783.58 560C757.85 510.02 788.52 486.07 767.94 420C746.73 351.9 738.16 351.73 700 291.67C693.69 281.73 689.9 285.03 679 280C619.9 252.75 609.43 265.71 560 227.11C519.78 195.71 517.35 188.57 499.69 140" stroke="rgba(132, 225, 185, 1)" stroke-width="2"></path>
        <path d="M700 128.65C692.26 128.65 686.45 131.92 686.45 140C686.45 172.59 689.47 210 700 210C711.25 210 730 168.62 730 140C730 127.95 714.04 128.65 700 128.65" stroke="rgba(132, 225, 185, 1)" stroke-width="2"></path>
        <path d="M1158.62 140C1174.47 99.92 1218.93 129.96 1260 96.12C1303.88 59.96 1284.91 29.93 1328.51 0C1354.91 -18.13 1364.26 0 1400 0C1470 0 1505 -35 1540 0C1575 35 1540 70 1540 140C1540 191.11 1568.7 230.53 1540 242.22C1498.7 259.05 1462.73 186.72 1400 197.04C1347.93 205.61 1352.2 235.77 1310.4 280C1282.2 309.84 1288.17 345.17 1260 345.17C1226.62 345.17 1207.88 321.64 1187.31 280C1157.19 219.05 1138.12 191.86 1158.62 140" stroke="rgba(132, 225, 185, 1)" stroke-width="2"></path>
        <path d="M51.08 420C57.51 375.42 93.16 350.74 140 350.74C197.44 350.74 215.81 373.27 259.64 420C285.81 447.9 258.03 500 280 500C311.29 500 318.94 453.03 366.15 420C388.94 404.05 394.44 402.05 420 402.05C433.86 402.05 439.13 406.28 445 420C472.9 485.25 496.08 512.11 487.53 560C483.58 582.11 453.76 560 420 560C350 560 350 560 280 560C210 560 210 560 140 560C124.9 560 117.18 571.61 109.8 560C72.72 501.61 42.41 480.05 51.08 420" stroke="rgba(132, 225, 185, 1)" stroke-width="2"></path>
        <path d="M1483.61 420C1517.46 380.69 1524.7 331.74 1540 331.74C1552.89 331.74 1540 375.87 1540 420C1540 490 1575 525 1540 560C1505 595 1470 560 1400 560C1368.34 560 1336.67 573.46 1336.67 560C1336.67 540.62 1367 525.77 1400 494.32C1440.47 455.77 1447.46 461.98 1483.61 420" stroke="rgba(132, 225, 185, 1)" stroke-width="2"></path>
        <path d="M0 105.95C5.02 105.95 18.81 123.92 18.81 140C18.81 152 5.34 162.11 0 162.11C-4.07 162.11 0 151.06 0 140C0 122.98 -4.39 105.95 0 105.95" stroke="rgba(132, 225, 185, 1)" stroke-width="2"></path>
        <path d="M553.54 140C553.54 98.87 555.02 56 560 56C565.03 56 573.55 100.9 573.55 140C573.55 147.56 565.92 149.33 560 149.33C555.92 149.33 553.54 145.54 553.54 140" stroke="rgba(132, 225, 185, 1)" stroke-width="2"></path>
        <path d="M700 34.05C643.39 15.02 585.45 8.69 585.45 0C585.45 -8.33 642.72 0 700 0C770 0 770 0 840 0C910 0 910 0 980 0C1050 0 1050 0 1120 0C1125.45 0 1130.91 -3.35 1130.91 0C1130.91 7.42 1131.09 20.4 1120 21.54C1055.64 28.18 1046.13 0.44 980 15.56C906.13 32.45 911.68 80.83 840 85.56C771.68 90.07 770.67 57.8 700 34.05" stroke="rgba(132, 225, 185, 1)" stroke-width="2"></path>
        <path d="M1306.67 140C1296.1 92.55 1327.66 57.12 1365.74 0C1374.33 -12.88 1382.87 0 1400 0C1436.59 0 1443.04 -15.07 1473.18 0C1513.04 19.93 1520.61 29.38 1540 70C1554.02 99.38 1540 105 1540 140C1540 163.33 1557.15 184.98 1540 186.67C1487.15 191.89 1470.45 167.92 1400 153.83C1353.78 144.59 1313.23 169.46 1306.67 140" stroke="rgba(132, 225, 185, 1)" stroke-width="2"></path>
        <path d="M828.33 280C829.67 269.73 835.11 262.5 840 262.5C844.36 262.5 844.8 270.85 846.83 280C862.3 349.6 841.43 361.19 875 420C908.02 477.85 926.69 467.63 980 513.33C1008.35 537.63 1038.33 546.9 1038.33 560C1038.33 570.23 1009.16 560 980 560C910 560 910 560 840 560C837.91 560 836.12 562.02 835.82 560C825.82 492.02 821.29 490.17 819.41 420C817.54 350.17 819.38 348.48 828.33 280" stroke="rgba(132, 225, 185, 1)" stroke-width="2"></path>
        <path d="M1254.62 280C1254.62 257.68 1257.72 233.33 1260 233.33C1262.27 233.33 1263.73 257.22 1263.73 280C1263.73 282.97 1262.08 284.83 1260 284.83C1257.53 284.83 1254.62 283.43 1254.62 280" stroke="rgba(132, 225, 185, 1)" stroke-width="2"></path>
        <path d="M98.38 420C98.38 398.96 118.08 387.58 140 387.58C166.89 387.58 196 397.14 196 420C196 456.13 165.28 505.56 140 505.56C116.47 505.56 98.38 457.95 98.38 420" stroke="rgba(132, 225, 185, 1)" stroke-width="2"></path>
        <path d="M1532.22 420C1537.5 415.1 1537.89 407.83 1540 407.83C1541.78 407.83 1540 413.91 1540 420C1540 490 1575 525 1540 560C1505 595 1470 560 1400 560C1389.16 560 1378.33 564.6 1378.33 560C1378.33 553.37 1388.46 548.03 1400 537.53C1465.4 478.03 1467.5 479.95 1532.22 420" stroke="rgba(132, 225, 185, 1)" stroke-width="2"></path>
        <path d="M356 560C356 541.88 394.29 497.78 420 497.78C439.46 497.78 446.35 537.62 446.35 560C446.35 568.73 433.17 560 420 560C388 560 356 572.99 356 560" stroke="rgba(132, 225, 185, 1)" stroke-width="2"></path>
    </g>
    <defs>
        <mask id="SvgjsMask1003">
            <rect width="1440" height="560" fill="#ffffff"></rect>
        </mask>
    </defs>
</svg>